<svg viewBox="0 0 1289.48 251.83" xmlns="http://www.w3.org/2000/svg"><path d="m114.07 163.47c-8.37 20.51-21.82 38.41-38.77 52.15h41.68c-11.29-17.13-3.24-50.78-2.91-52.15z" fill="#0ca94b"/><path d="m153.01 160.45c-.97-30.05 15.64-56.59 40.56-69.73-36.36 9.51-63.92 41.74-65.74 81.26-.16 3.47-.11 6.91.13 10.29 3.69 29.43 14.51 32.99 21.67 33.35h29.8c-15.57-13.4-25.7-33.02-26.41-55.17z" fill="#0ca94b"/><path d="m106.9 118.77c1.71-14 .99-32.34-1.88-40.76s-6.93-18.38-21.81-18.31h-10.59c-5.07 0-9.18 4.11-9.18 9.18v128.56c23.2-18.63 39.51-46.3 43.46-78.66z" fill="#0282ac"/><path d="m122.29 133.44c6.48-13.09 15.39-24.81 26.06-34.43 10.83-9.78 23.45-17.39 36.95-22.32 10.99-4.05 22.54-6.24 34.08-6.74v-1.08c0-5.07-4.11-9.18-9.18-9.18h-105.61c24.38 19.4 18.64 67.45 17.71 73.75z" fill="#667a79"/><g fill="#0282ac"><path d="m168.52 160.86c2.28 23.87 17.85 42.78 38.71 50.39 8.17 2.72 12.11.02 12.13-6.1v-113.28c-31.5 6.8-53.93 36.64-50.84 68.99z"/><path d="m325.33 184.94h24.38l-44.73-51.72 39.19-46.4h-23.64l-40.38 48.15v-48.15h-19.65v98.12h19.65v-27.73l10.8-12.81z"/><path d="m420.37 154.35h-55.12c1.92 12.12 10.2 18.32 25.27 18.32 10.34 0 16.25-2.07 26.75-6.5l-2.51 15.22c-5.47 2.36-13.6 5.91-27.93 5.91-23.79 0-41.23-14.33-41.23-38.86s17.14-39.01 38.57-39.01c21.57 0 36.65 14.33 36.65 36.2 0 2.95-.15 5.91-.44 8.72zm-54.97-12.86h37.09c-1.18-11.67-7.98-17.58-18.32-17.58-9.75 0-16.85 5.76-18.77 17.58z"/><path d="m505.02 154.35h-55.12c1.92 12.12 10.2 18.32 25.27 18.32 10.34 0 16.25-2.07 26.75-6.5l-2.51 15.22c-5.47 2.36-13.6 5.91-27.93 5.91-23.79 0-41.23-14.33-41.23-38.86 0-24.09 17.14-39.01 38.57-39.01 21.57 0 36.65 14.33 36.65 36.2 0 2.95-.15 5.91-.44 8.72zm-54.97-12.86h37.09c-1.18-11.67-7.98-17.58-18.32-17.58-9.75 0-16.85 5.76-18.77 17.58z"/><path d="m517.17 183.46-2.66-16.7c12.71 4.88 22.46 5.91 29.85 5.91 9.31 0 15.81-2.22 15.81-7.09s-5.47-7.54-16.85-10.2c-19.8-4.58-28.37-11.08-28.37-24.09 0-13 11.82-21.87 32.66-21.87 10.79 0 19.65 2.07 25.86 3.55l2.66 16.55c-11.53-3.84-20.1-5.62-28.52-5.62s-13.45 2.22-13.45 6.5c0 4.29 3.99 6.21 17.44 9.31 19.95 4.58 27.78 12.41 27.78 24.97 0 14.04-12.12 22.61-32.51 22.61-12.56 0-22.02-2.07-29.7-3.84z"/><path d="m592.06 79.55 19.06-2.81v108.2h-19.06z"/><path d="m698.76 154.35h-55.12c1.92 12.12 10.2 18.32 25.27 18.32 10.34 0 16.26-2.07 26.75-6.5l-2.51 15.22c-5.47 2.36-13.6 5.91-27.93 5.91-23.79 0-41.23-14.33-41.23-38.86s17.14-39.01 38.57-39.01c21.57 0 36.65 14.33 36.65 36.2 0 2.95-.15 5.91-.44 8.72zm-54.97-12.86h37.09c-1.18-11.67-7.98-17.58-18.32-17.58-9.75 0-16.85 5.76-18.77 17.58z"/><path d="m759.24 109.87-.15 18.91c-3.1-.74-5.32-1.33-8.28-1.33-9.01 0-19.06 5.62-19.06 23.05v34.43h-19.06v-72.26s18.18-2.22 18.18-2.22v15.37c3.7-9.31 10.79-16.11 25.42-16.11.89 0 2.07 0 2.95.15z"/></g><path d="m792.18 129.71h42.99s-3.17 15.98-3.17 15.98h-39.82s0 39.25 0 39.25h-19.5v-98.12h67.8s3.17 15.82 3.17 15.82h-51.46s0 27.07 0 27.07z" fill="#0ca94b"/><path d="m918.51 154.35h-55.12c1.92 12.12 10.2 18.32 25.27 18.32 10.34 0 16.25-2.07 26.75-6.5l-2.51 15.22c-5.47 2.36-13.6 5.91-27.93 5.91-23.79 0-41.23-14.33-41.23-38.86 0-24.09 17.14-39.01 38.57-39.01 21.57 0 36.65 14.33 36.65 36.2 0 2.95-.15 5.91-.44 8.72zm-54.97-12.86h37.09c-1.18-11.67-7.98-17.58-18.32-17.58-9.75 0-16.85 5.76-18.77 17.58z" fill="#0ca94b"/><path d="m984.78 184.94v-10.05c-5.47 6.8-12.41 12.27-26.01 12.27-14.48 0-29.85-12.41-29.85-38.57s17.14-38.86 33.54-38.86c11.23 0 17.58 4.88 21.43 8.13v-38.3s19.06-2.81 19.06-2.81v108.2h-18.18zm-18.47-60c-8.57 0-17.73 7.83-17.73 23.05s6.65 23.94 17.58 23.94c10.34 0 17.73-9.31 17.73-20.69v-18.33c-3.25-2.81-9.01-7.98-17.58-7.98z" fill="#0ca94b"/><path d="m1090.12 154.35h-55.12c1.92 12.12 10.2 18.32 25.27 18.32 10.34 0 16.25-2.07 26.75-6.5l-2.51 15.22c-5.47 2.36-13.6 5.91-27.93 5.91-23.79 0-41.23-14.33-41.23-38.86 0-24.09 17.14-39.01 38.57-39.01 21.57 0 36.65 14.33 36.65 36.2 0 2.95-.15 5.91-.44 8.72zm-54.98-12.86h37.09c-1.18-11.67-7.98-17.58-18.32-17.58-9.75 0-16.85 5.76-18.77 17.58z" fill="#0ca94b"/><path d="m1150.35 109.87-.15 18.91c-3.1-.74-5.32-1.33-8.28-1.33-9.01 0-19.06 5.62-19.06 23.05v34.43h-19.06v-72.26s18.18-2.22 18.18-2.22v15.37c3.7-9.31 10.79-16.11 25.42-16.11.89 0 2.07 0 2.95.15z" fill="#0ca94b"/><path d="m1183.33 137.8c9.9 0 16.26 3.99 20.69 6.8v-4.14c0-11.23-7.09-16.4-17.73-16.4-11.08 0-19.36 3.25-26.16 5.62l2.51-16.85c8.72-2.22 16.99-3.4 27.04-3.4 21.28 0 33.4 10.34 33.4 31.18v44.33h-18.32v-6.5c-3.84 4.43-11.97 8.72-22.46 8.72-16.55 0-26.89-10.93-26.89-25.12s11.08-24.23 27.93-24.23zm4.44 35.61c8.42 0 16.4-6.21 16.4-15.81v-.29c-5.32-3.7-10.64-5.47-16.7-5.47-8.13 0-13 4.14-13 10.34 0 6.21 4.88 11.23 13.3 11.23z" fill="#0ca94b"/><path d="m1238.44 79.55 18.81-2.81v108.2h-18.81z" fill="#0ca94b"/></svg>